<?xml version="1.0" standalone="no"?>
<!DOCTYPE svg PUBLIC "-//W3C//DTD SVG 20010904//EN"
 "http://www.w3.org/TR/2001/REC-SVG-20010904/DTD/svg10.dtd">
<svg version="1.0" xmlns="http://www.w3.org/2000/svg"
 width="260.000000pt" height="260.000000pt" viewBox="0 0 260.000000 260.000000"
 preserveAspectRatio="xMidYMid meet">
<metadata>
Created by potrace 1.11, written by Peter Selinger 2001-2013
</metadata>
<g transform="translate(0.000000,260.000000) scale(0.100000,-0.100000)"
fill="#000000" stroke="none">
<path d="M0 1300 l0 -1300 1300 0 1300 0 0 1300 0 1300 -1300 0 -1300 0 0
-1300z m798 448 c16 -46 75 -219 132 -386 60 -178 106 -298 110 -290 4 7 28
70 53 139 l45 126 -84 237 c-46 130 -84 242 -84 247 0 6 44 9 112 7 l113 -3
50 -157 c27 -87 52 -158 55 -158 3 0 28 72 55 160 l49 160 113 0 c62 0 113 -4
113 -8 0 -5 -39 -116 -86 -247 l-85 -238 52 -139 c28 -76 53 -137 55 -135 2 1
61 174 132 382 l129 380 138 3 c75 1 135 -1 133 -6 -1 -5 -97 -243 -212 -530
l-209 -522 -106 0 -106 0 -80 200 c-44 110 -82 200 -85 200 -3 0 -41 -90 -85
-200 l-80 -200 -107 0 -106 0 -207 518 c-114 284 -209 523 -212 530 -4 9 26
12 130 12 l135 0 30 -82z"/>
</g>
</svg>
