<?xml version="1.0" encoding="utf-8"?>
<!-- Generator: Adobe Illustrator 19.0.0, SVG Export Plug-In . SVG Version: 6.00 Build 0)  -->
<svg version="1.1" id="Layer_1" xmlns="http://www.w3.org/2000/svg" xmlns:xlink="http://www.w3.org/1999/xlink" x="0px" y="0px"
	 width="145px" height="22px" viewBox="0 0 145 22" enable-background="new 0 0 145 22" xml:space="preserve">
<g>
	<path fill="#EDEDED" d="M9.7,0.4h4.5l2.2,6.8l2.2-6.8h4.6l-3.6,9.9l2.2,5.7L27,0.4h5.4l-8.5,21.3h-4.1l-3.4-8.3L13,21.6H8.9
		L0.4,0.4h5.3L11.1,16l2.1-5.7L9.7,0.4z"/>
	<path fill="#EDEDED" d="M56.3,0.4v21.3h-4.9v-8.7h-8.5v8.7H38V0.4h4.9v8.3h8.5V0.4H56.3z"/>
	<path fill="#EDEDED" d="M79.1,17.3v4.3h-15V0.4h14.7v4.3h-9.8v4.1h8.4v4h-8.4v4.5H79.1z"/>
	<path fill="#EDEDED" d="M100.9,17.3v4.3h-15V0.4h14.7v4.3h-9.8v4.1h8.4v4h-8.4v4.5H100.9z"/>
	<path fill="#EDEDED" d="M107.6,21.6V0.4h4.9v17h10.3v4.3H107.6z"/>
	<path fill="#EDEDED" d="M127.7,18l11.1-13.3h-10.7V0.4h16.4V4l-10.6,13.3h10.7v4.3h-16.9V18z"/>
</g>
<g id="XMLID_7_">
</g>
<g id="XMLID_8_">
</g>
<g id="XMLID_9_">
</g>
<g id="XMLID_10_">
</g>
<g id="XMLID_11_">
</g>
<g id="XMLID_12_">
</g>
<g id="XMLID_13_">
</g>
<g id="XMLID_14_">
</g>
<g id="XMLID_15_">
</g>
<g id="XMLID_16_">
</g>
<g id="XMLID_17_">
</g>
<g id="XMLID_18_">
</g>
<g id="XMLID_19_">
</g>
<g id="XMLID_20_">
</g>
<g id="XMLID_21_">
</g>
</svg>
