<?xml version="1.0" encoding="utf-8"?>
<!-- Generator: Adobe Illustrator 19.0.0, SVG Export Plug-In . SVG Version: 6.00 Build 0)  -->
<svg version="1.1" id="Layer_1" xmlns="http://www.w3.org/2000/svg" xmlns:xlink="http://www.w3.org/1999/xlink" x="0px" y="0px"
	 width="145px" height="22px" viewBox="-57 120 145 22" style="enable-background:new -57 120 145 22;" xml:space="preserve">
<style type="text/css">
	.st0{fill:#1E1E1E;}
</style>
<g>
	<path class="st0" d="M-47.3,120.3h4.5l2.2,6.8l2.2-6.8h4.6l-3.6,9.9l2.2,5.7l5.2-15.6h5.4l-8.5,21.3h-4.1l-3.4-8.3l-3.4,8.2h-4.1
		l-8.5-21.2h5.3l5.4,15.6l2.1-5.7L-47.3,120.3z"/>
	<path class="st0" d="M-0.7,120.3v21.3h-4.9v-8.7h-8.5v8.7H-19v-21.3h4.9v8.3h8.5v-8.3H-0.7z"/>
	<path class="st0" d="M22.1,137.3v4.3h-15v-21.2h14.7v4.3H12v4.1h8.4v4H12v4.5H22.1z"/>
	<path class="st0" d="M43.9,137.3v4.3h-15v-21.2h14.7v4.3h-9.8v4.1h8.4v4h-8.4v4.5H43.9z"/>
	<path class="st0" d="M50.6,141.6v-21.2h4.9v17h10.3v4.3L50.6,141.6L50.6,141.6z"/>
	<path class="st0" d="M70.7,137.9l11.1-13.3H71.1v-4.3h16.4v3.6l-10.6,13.3h10.7v4.3H70.7C70.7,141.6,70.7,137.9,70.7,137.9z"/>
</g>
<g id="XMLID_7_">
</g>
<g id="XMLID_8_">
</g>
<g id="XMLID_9_">
</g>
<g id="XMLID_10_">
</g>
<g id="XMLID_11_">
</g>
<g id="XMLID_12_">
</g>
<g id="XMLID_13_">
</g>
<g id="XMLID_14_">
</g>
<g id="XMLID_15_">
</g>
<g id="XMLID_16_">
</g>
<g id="XMLID_17_">
</g>
<g id="XMLID_18_">
</g>
<g id="XMLID_19_">
</g>
<g id="XMLID_20_">
</g>
<g id="XMLID_21_">
</g>
</svg>
